<svg xmlns="http://www.w3.org/2000/svg" width="25.998" height="26" viewBox="0 0 25.998 26"><g transform="translate(1 1)"><path d="M-1382.547,220.725V200H-1400v20.728a3.273,3.273,0,0,0,3.272,3.272h12" transform="translate(1400 -199.997)" fill="none" stroke="#b4bbc9" stroke-linecap="round" stroke-linejoin="round" stroke-width="2"/><path d="M0,0H6.545a0,0,0,0,1,0,0V7.636a3.272,3.272,0,0,1-3.272,3.272h0A3.272,3.272,0,0,1,0,7.636V0A0,0,0,0,1,0,0Z" transform="translate(17.453 13.092)" fill="none" stroke="#b4bbc9" stroke-linecap="round" stroke-linejoin="round" stroke-width="2"/><line y2="10.908" transform="translate(8.727 6.547)" stroke-width="2" stroke="#b4bbc9" stroke-linecap="round" stroke-linejoin="round" fill="none"/><path d="M-1393.333,220l4.363,4.363,4.363-4.363" transform="translate(1397.697 -206.908)" fill="none" stroke="#b4bbc9" stroke-linecap="round" stroke-linejoin="round" stroke-width="2"/></g></svg>