<svg xmlns="http://www.w3.org/2000/svg" width="42" height="42" viewBox="0 0 42 42"><g transform="translate(-472 -3009)"><g transform="translate(-66 -2536)"><rect width="42" height="42" rx="21" transform="translate(538 5545)" fill="#fff"/></g><g transform="translate(144.679 2006.573)"><path d="M354.376,1019.389a1.02,1.02,0,1,1-1.02-1.02A1.022,1.022,0,0,1,354.376,1019.389Z" transform="translate(-0.803 -0.197)" fill="#3a3d53"/><path d="M351.4,1016.658a3.7,3.7,0,0,1,3.692,3.692v6.153a3.7,3.7,0,0,1-3.692,3.692h-6.154a3.7,3.7,0,0,1-3.692-3.692v-6.153a3.7,3.7,0,0,1,3.692-3.692H351.4m0-1.231h-6.154a4.922,4.922,0,0,0-4.922,4.923v6.153a4.922,4.922,0,0,0,4.922,4.923H351.4a4.923,4.923,0,0,0,4.923-4.923v-6.153a4.923,4.923,0,0,0-4.923-4.923Z" fill="#3a3d53"/><path d="M348.82,1028.1a4.169,4.169,0,1,1,4.17-4.169A4.173,4.173,0,0,1,348.82,1028.1Zm0-7.031a2.862,2.862,0,1,0,2.862,2.862A2.865,2.865,0,0,0,348.82,1021.065Z" transform="translate(-0.5 -0.5)" fill="#3a3d53"/></g></g></svg>