<svg xmlns="http://www.w3.org/2000/svg" width="42" height="42" viewBox="0 0 42 42"><g transform="translate(-400 -3009)"><rect width="42" height="42" rx="21" transform="translate(400 3009)" fill="#f8f8fa"/><g transform="translate(484.988 2891.447)"><path d="M-55.821,134.118a2.071,2.071,0,0,0-1.293-1.25c-1.049-.371-10.178-.424-13.134-.106a2.116,2.116,0,0,0-1.431.763c-1.1,1.292-.931,7.838-.359,9.406a1.991,1.991,0,0,0,1.313,1.271c1.451.477,12.8.487,13.9-.085a2.038,2.038,0,0,0,.922-.943C-55.174,141.617-55.2,135.728-55.821,134.118Zm-10.211,7.023V135.6c1.778.932,3.538,1.843,5.317,2.775C-62.494,139.308-64.253,140.219-66.032,141.14Z" transform="translate(0 0)" fill="#fd3832"/><path d="M-55.821,134.118a2.071,2.071,0,0,0-1.293-1.25c-1.049-.371-10.178-.424-13.134-.106a2.116,2.116,0,0,0-1.431.763c-1.1,1.292-.931,7.838-.359,9.406a1.991,1.991,0,0,0,1.313,1.271c1.451.477,12.8.487,13.9-.085a2.038,2.038,0,0,0,.922-.943C-55.174,141.617-55.2,135.728-55.821,134.118Zm-10.211,7.023V135.6c1.778.932,3.538,1.843,5.317,2.775C-62.494,139.308-64.253,140.219-66.032,141.14Z" transform="translate(0 0)" fill="#fd3832" fill-rule="evenodd"/></g></g></svg>