<svg xmlns="http://www.w3.org/2000/svg" width="46" height="46" viewBox="0 0 46 46"><g transform="translate(-328 -3007)"><path d="M23,0A23,23,0,1,1,0,23,23,23,0,0,1,23,0Z" transform="translate(328 3007)" fill="#f8f8fa"/><path d="M5,12.9a9.256,9.256,0,0,0,9.3-9.3V3.2a6.479,6.479,0,0,0,1.6-1.7A4.136,4.136,0,0,1,14,2,2.827,2.827,0,0,0,15.4.2a6.561,6.561,0,0,1-2.1.8A3.253,3.253,0,0,0,7.7,3.3a1.483,1.483,0,0,0,.1.7A8.994,8.994,0,0,1,1.1.6,2.934,2.934,0,0,0,.7,2.2,3.282,3.282,0,0,0,2.2,4.9,4.191,4.191,0,0,1,.7,4.5h0A3.228,3.228,0,0,0,3.3,7.7a1.486,1.486,0,0,1-.9.2,1.268,1.268,0,0,1-.6-.1,3.344,3.344,0,0,0,3,2.3,6.282,6.282,0,0,1-4,1.4H0a9.4,9.4,0,0,0,5,1.4" transform="translate(343 3024)" fill="#5daaee"/></g></svg>