<svg xmlns="http://www.w3.org/2000/svg" width="42" height="42" viewBox="0 0 42 42"><g transform="translate(-436 -3169)"><g transform="translate(93 -75)"><rect width="42" height="42" rx="21" transform="translate(343 3244)" fill="#4680c2"/></g><path d="M-310.407-42.254c.13-.409,0-.707-.577-.707H-312.9a.849.849,0,0,0-.837.54A16.332,16.332,0,0,1-316.1-38.5c-.447.447-.651.6-.893.6-.13,0-.3-.149-.3-.558v-3.815c0-.484-.149-.707-.558-.707h-3.015a.462.462,0,0,0-.484.447c0,.465.689.577.763,1.879v2.829c0,.614-.112.726-.354.726-.651,0-2.233-2.4-3.182-5.136-.186-.54-.372-.744-.856-.744h-1.935c-.558,0-.651.261-.651.54,0,.5.651,3.033,3.033,6.383a7.468,7.468,0,0,0,5.862,3.517c1.228,0,1.377-.279,1.377-.744v-1.731c0-.558.112-.651.5-.651.279,0,.782.149,1.917,1.247,1.3,1.3,1.526,1.9,2.252,1.9h1.917c.558,0,.819-.279.67-.819a8.283,8.283,0,0,0-1.619-2.252c-.447-.521-1.116-1.1-1.321-1.377-.279-.372-.2-.521,0-.856-.019,0,2.326-3.312,2.568-4.429" transform="translate(775.564 3227.98)" fill="#fff" fill-rule="evenodd"/></g></svg>