<svg xmlns="http://www.w3.org/2000/svg" width="42" height="42" viewBox="0 0 42 42"><g transform="translate(-508 -3169)"><g transform="translate(165 -75)"><rect width="42" height="42" rx="21" transform="translate(343 3244)" fill="#4680c2"/></g><g transform="translate(522 3182)"><path d="M244.764,41.226h3.064v9.842h-3.064Zm1.534-4.892a1.774,1.774,0,1,1-1.776,1.773,1.774,1.774,0,0,1,1.776-1.773" transform="translate(-244.522 -36.334)" fill="#fff"/><path d="M249.661,41.148H252.6v1.345h.041a3.214,3.214,0,0,1,2.9-1.589c3.1,0,3.669,2.037,3.669,4.687v5.4h-3.058V46.2c0-1.141-.022-2.609-1.589-2.609-1.594,0-1.836,1.243-1.836,2.526V50.99h-3.058Z" transform="translate(-244.435 -36.257)" fill="#fff"/></g></g></svg>