<svg xmlns="http://www.w3.org/2000/svg" width="122.5" height="33.2">
  <g fill="#fff" fill-rule="evenodd">
    <path d="M44.1 7V.6h-8.4v31.8h8.4v-4.7a19.2 19.2 0 0 0 2 2.2c4.2 3.7 12.8 4 17.9 1.8a12.4 12.4 0 0 0 2.8-1.6 11.3 11.3 0 0 0 1.1-1.1l1-1.2v4.6H85c5.1 0 8.2-.8 10.9-5.3v5.3h8.3V22c6.5 0 15.5 1.1 17.8-6.8a14.1 14.1 0 0 0 0-7.5c-2.4-7.8-11.2-7-17.8-7h-8.3V19l-.9-1.2a8.3 8.3 0 0 0-3.9-2.5c1.1-1 4.4-2 4-7.2a7 7 0 0 0-4.7-6.4c-2.9-1.2-7-1-10.3-1H69v8.2C68.1-.8 53.7-2 47.3 2.6A10.9 10.9 0 0 0 46 3.8 9.3 9.3 0 0 0 44 6.9zm60 8.5c4.9-.2 10.3 1.1 10.3-4 0-2.3-1-3.5-3.2-3.9a47.8 47.8 0 0 0-7-.1v8zm-27-2.3c2 0 4.4.1 6.4 0 2.2 0 3.6-.8 3.6-3s-1.4-3-3.5-3.1C81.7 6.9 79 7 77 7v6.1zM77 26h7.4c2.4-.2 3.8-1.1 3.8-3.7 0-2.4-1.5-3.4-3.8-3.6H77V26zm-33-4.2h6.7c.1 2.1.7 3.2 2 4 2 1.4 7.9 1.7 9-1 1.4-3.9-4-4.5-6.5-5.3-2.7-.8-6.4-1.8-8.6-3.4a7.6 7.6 0 0 1-2.6-3.3v9zm24.8-4v-7.5h-7.8A3.7 3.7 0 0 0 59 7a7.7 7.7 0 0 0-4.6-.5c-1.4.3-2.7 1-2.8 2.4-.1 1.9 1.1 2.3 2.6 2.7 4.7 1.2 11.8 2.6 14.6 6.3zM0 .5h32v32H0V.5zM1.5 2h29L16 16.5 1.5 31h29L16 16.5 1.5 2z"/>
  </g>
</svg>
