<svg width="336" height="202" fill="none" xmlns="http://www.w3.org/2000/svg">
  <path d="M105 159a12 12 0 1 0 0-24 12 12 0 0 0 0 24z" stroke="#3063B9" stroke-width="2" stroke-miterlimit="10" stroke-linecap="round" stroke-linejoin="round"/>
  <path d="M105 152.3c6.6 0 12-2.4 12-5.3 0-3-5.4-5.3-12-5.3S93 144 93 147c0 3 5.4 5.3 12 5.3z" stroke="#3063B9" stroke-width="2" stroke-miterlimit="10" stroke-linecap="round" stroke-linejoin="round"/>
  <path d="M105 159c3 0 5.3-5.4 5.3-12s-2.4-12-5.3-12c-3 0-5.3 5.4-5.3 12s2.4 12 5.3 12z" stroke="#3063B9" stroke-width="2" stroke-miterlimit="10" stroke-linecap="round" stroke-linejoin="round"/>
  <path d="M60.7 135H52v8.7h8.7V135zM76 135h-8.7v8.7H76V135zM60.7 150.3H52v8.7h8.7v-8.7zM76 150.3h-8.7v8.7H76v-8.7z" stroke="#6C7993" stroke-width="2" stroke-linecap="round" stroke-linejoin="round"/>
  <path d="M17.7 135H9v8.7h8.7V135zM17.7 150.3H9v8.7h8.7v-8.7zM33 136.7H22.9M33 142H22.9M33 152H22.9M33 157.3H22.9" stroke="#B4BBC9" stroke-width="2" stroke-linecap="round" stroke-linejoin="round"/>
  <g clip-path="url(#clip0)">
    <path d="M21 84a21 21 0 1 1 0 42 21 21 0 0 1 0-42z" fill="#3B5998"/>
    <path d="M17 103.2h1.6v-1.6c0-.8 0-1.7.5-2.4a3 3 0 0 1 2.5-1.2c1 0 2 0 2.9.3l-.4 2.4-1.3-.2c-.6 0-1.2.2-1.2.9v1.8h2.6l-.2 2.3h-2.4v8.1h-3v-8.1H17v-2.3z" fill="#fff"/>
  </g>
  <path d="M84 105a21 21 0 1 0-42 0 21 21 0 0 0 42 0z" fill="#E0A294"/>
  <path d="M68.3 100.8a1 1 0 1 1-2 0 1 1 0 0 1 2 0z" fill="#fff"/>
  <path d="M66 98.2a3.7 3.7 0 0 1 3.8 3.7v6.2a3.7 3.7 0 0 1-3.7 3.7h-6.2a3.7 3.7 0 0 1-3.7-3.7v-6.2a3.7 3.7 0 0 1 3.7-3.7h6.2zm0-1.2h-6a5 5 0 0 0-5 5v6a5 5 0 0 0 5 5h6a5 5 0 0 0 5-5v-6a5 5 0 0 0-5-5z" fill="#fff"/>
  <path d="M63 109.2a4.2 4.2 0 1 1 0-8.4 4.2 4.2 0 0 1 0 8.4zm0-7a2.9 2.9 0 1 0 0 5.7 2.9 2.9 0 0 0 0-5.8z" fill="#fff"/>
  <path d="M126 105a21 21 0 1 0-42 0 21 21 0 0 0 42 0z" fill="#4680C2"/>
  <path d="M98.2 101.9h3.1v9.8h-3V102zm1.6-4.9a1.8 1.8 0 1 1 0 3.5 1.8 1.8 0 0 1 0-3.5zM103.2 101.9h3v1.3a3.2 3.2 0 0 1 3-1.6c3 0 3.6 2 3.6 4.7v5.4h-3V107c0-1.1-.1-2.6-1.7-2.6-1.6 0-1.8 1.3-1.8 2.6v4.8h-3V102z" fill="#fff"/>
  <path d="M168 105a21 21 0 1 0-42 0 21 21 0 0 0 42 0z" fill="#5DAAEE"/>
  <path d="M144 111.9a9.3 9.3 0 0 0 9.3-9.3v-.4c.6-.5 1.2-1 1.6-1.7-.6.3-1.2.5-1.9.5a2.8 2.8 0 0 0 1.4-1.8c-.6.4-1.4.7-2.1.8a3.3 3.3 0 0 0-5.6 2.3l.1.7a9 9 0 0 1-6.7-3.4 3.3 3.3 0 0 0 1.1 4.3c-.5 0-1-.2-1.5-.4a3.2 3.2 0 0 0 2.6 3.2c-.3.2-.6.2-.9.2l-.6-.1a3.3 3.3 0 0 0 3 2.3 6.3 6.3 0 0 1-4 1.4h-.8c1.5 1 3.2 1.4 5 1.4z" fill="#fff"/>
  <path d="M210 105a21 21 0 1 0-42 0 21 21 0 0 0 42 0z" fill="#4680C2"/>
  <path fill-rule="evenodd" clip-rule="evenodd" d="M197.2 100.7c0-.4 0-.7-.6-.7h-2a.8.8 0 0 0-.8.6c-.6 1.4-1.4 2.7-2.3 3.9-.5.4-.7.6-1 .6 0 0-.2-.2-.2-.6v-3.8c0-.5-.2-.7-.6-.7h-3a.5.5 0 0 0-.5.4c0 .5.7.6.8 2v2.8c0 .6-.1.7-.4.7-.6 0-2.2-2.4-3.2-5.2-.1-.5-.3-.7-.8-.7h-2c-.5 0-.6.3-.6.5 0 .5.7 3 3 6.4a7.5 7.5 0 0 0 5.9 3.5c1.2 0 1.4-.2 1.4-.7V108c0-.6 0-.7.5-.7.3 0 .8.2 1.9 1.3 1.3 1.3 1.5 1.9 2.2 1.9h2c.5 0 .8-.3.6-.9-.4-.8-1-1.6-1.6-2.2l-1.3-1.4c-.3-.4-.2-.5 0-.8 0 0 2.3-3.4 2.6-4.5" fill="#fff"/>
  <path d="M252 105a21 21 0 1 0-42 0 21 21 0 0 0 42 0z" fill="#FD3832"/>
  <path d="M239.2 100.6a2 2 0 0 0-1.3-1.3 80.8 80.8 0 0 0-14 .1l-.6.6c-1 1.3-1 7.8-.4 9.4a2 2 0 0 0 1.4 1.2c1.4.5 12.8.5 13.9 0a2 2 0 0 0 .9-1c.7-1.5.7-7.4 0-9zm-10.2 7V102l5.3 2.8-5.3 2.8z" fill="#fff"/>
  <path fill-rule="evenodd" clip-rule="evenodd" d="M239.2 100.6a2 2 0 0 0-1.3-1.3 80.8 80.8 0 0 0-14 .1l-.6.6c-1 1.3-1 7.8-.4 9.4a2 2 0 0 0 1.4 1.2c1.4.5 12.8.5 13.9 0a2 2 0 0 0 .9-1c.7-1.5.7-7.4 0-9zm-10.2 7V102l5.3 2.8-5.3 2.8z" fill="#fff"/>
  <g clip-path="url(#clip1)">
    <path d="M97.7 17.8l7 7.4 7-7.4" stroke="#B4BBC9" stroke-width="1.5" stroke-linecap="round" stroke-linejoin="round"/>
  </g>
  <g clip-path="url(#clip2)">
    <path d="M25 14l-7 7 7 7" stroke="#6C7993" stroke-width="2" stroke-linecap="round" stroke-linejoin="round"/>
  </g>
  <g clip-path="url(#clip3)">
    <path d="M60 14l7 7-7 7" stroke="#6C7993" stroke-width="2" stroke-linecap="round" stroke-linejoin="round"/>
  </g>
  <g clip-path="url(#clip4)" stroke="#B4BBC9" stroke-width="2" stroke-linecap="round" stroke-linejoin="round">
    <path d="M151.3 26.5l6.1-5.8-6.1-5.8M157.4 20.7H136"/>
  </g>
  <path d="M188.4 26a5.6 5.6 0 1 0 0-11.2 5.6 5.6 0 0 0 0 11.2z" stroke="#838C9B" stroke-width="1.6" stroke-miterlimit="10"/>
  <path d="M196.9 28.9l-4.5-4.5" stroke="#838C9B" stroke-width="1.6" stroke-linecap="round" stroke-linejoin="round"/>
  <g clip-path="url(#clip5)" stroke="#B4BBC9" stroke-width="2" stroke-linecap="round" stroke-linejoin="round">
    <path d="M194.5 59.3c2 0 3.6-1.6 3.6-3.7 0-2-1.6-3.7-3.6-3.7s-3.7 1.7-3.7 3.7 1.6 3.7 3.7 3.7zM183.5 66.7c2 0 3.7-1.7 3.7-3.7s-1.6-3.7-3.7-3.7c-2 0-3.6 1.7-3.6 3.7s1.6 3.7 3.6 3.7zM194.5 74c2 0 3.6-1.6 3.6-3.6s-1.6-3.7-3.6-3.7-3.7 1.6-3.7 3.7c0 2 1.6 3.7 3.7 3.7zM191.4 68.3l-4.8-3.3M191.4 57.7l-4.8 3.3"/>
  </g>
  <g clip-path="url(#clip6)">
    <path d="M63 42a21 21 0 1 1 0 42 21 21 0 0 1 0-42z" fill="#F8F8FA"/>
    <path d="M59 61.2h1.6v-1.6c0-.8 0-1.7.5-2.4a3 3 0 0 1 2.5-1.2c1 0 2 0 2.9.3l-.4 2.4-1.3-.2c-.6 0-1.2.2-1.2.9v1.8h2.6l-.2 2.3h-2.4v8.1h-3v-8.1H59v-2.3z" fill="#3B5998"/>
  </g>
  <path d="M168 63a21 21 0 1 0-42 0 21 21 0 0 0 42 0z" fill="#fff"/>
  <path d="M152.3 58.8a1 1 0 1 1-2 0 1 1 0 0 1 2 0z" fill="#3A3D53"/>
  <path d="M150 56.2a3.7 3.7 0 0 1 3.8 3.7v6.2a3.7 3.7 0 0 1-3.7 3.7h-6.2a3.7 3.7 0 0 1-3.7-3.7v-6.2a3.7 3.7 0 0 1 3.7-3.7h6.2zm0-1.2h-6a5 5 0 0 0-5 5v6a5 5 0 0 0 5 5h6a5 5 0 0 0 5-5v-6a5 5 0 0 0-5-5z" fill="#3A3D53"/>
  <path d="M147 67.2a4.2 4.2 0 1 1 0-8.4 4.2 4.2 0 0 1 0 8.4zm0-7a2.9 2.9 0 1 0 0 5.7 2.9 2.9 0 0 0 0-5.8z" fill="#3A3D53"/>
  <path d="M126 63a21 21 0 1 0-42 0 21 21 0 0 0 42 0z" fill="#F8F8FA"/>
  <path d="M113.2 58.6a2 2 0 0 0-1.3-1.3 80.8 80.8 0 0 0-14 .1l-.6.6c-1 1.3-1 7.8-.3 9.4a2 2 0 0 0 1.3 1.2c1.4.5 12.8.5 13.9 0a2 2 0 0 0 .9-1c.7-1.5.7-7.4 0-9zm-10.2 7V60l5.3 2.8-5.3 2.8z" fill="#FD3832"/>
  <path fill-rule="evenodd" clip-rule="evenodd" d="M113.2 58.6a2 2 0 0 0-1.3-1.3 80.8 80.8 0 0 0-14 .1l-.6.6c-1 1.3-1 7.8-.3 9.4a2 2 0 0 0 1.3 1.2c1.4.5 12.8.5 13.9 0a2 2 0 0 0 .9-1c.7-1.5.7-7.4 0-9zm-10.2 7V60l5.3 2.8-5.3 2.8z" fill="#FD3832"/>
  <g clip-path="url(#clip7)">
    <path d="M21 42a21 21 0 1 1 0 42 21 21 0 0 1 0-42z" fill="#F8F8FA"/>
    <path d="M18.3 69.3a8.5 8.5 0 0 0 8.5-8.5v-.4l1.4-1.5c-.5.3-1.1.4-1.7.4a2.6 2.6 0 0 0 1.3-1.6 6 6 0 0 1-2 .7 3 3 0 0 0-5 2.8 8.2 8.2 0 0 1-6.1-3.1c-.3.4-.4 1-.4 1.4a3 3 0 0 0 1.4 2.5c-.5 0-1-.2-1.4-.4a3 3 0 0 0 2.4 3c-.2.1-.5.2-.8.1h-.6a3 3 0 0 0 2.8 2c-1 .9-2.3 1.3-3.7 1.3h-.7c1.4.9 3 1.3 4.6 1.3z" fill="#5DAAEE"/>
  </g>
  <path d="M315 33.5a12.5 12.5 0 1 0 0-25 12.5 12.5 0 0 0 0 25z" stroke="#B4BBC9"/>
  <path d="M319.2 16.7l-8.5 8.5M319.2 25.2l-8.5-8.5" stroke="#B4BBC9" stroke-linecap="round"/>
  <g clip-path="url(#clip8)" stroke="#fff" stroke-width="1.5">
    <path d="M272.4 26a5.6 5.6 0 1 0 0-11.2 5.6 5.6 0 0 0 0 11.2z" stroke-miterlimit="10"/>
    <path d="M281 29l-4.6-4.6" stroke-linecap="round" stroke-linejoin="round"/>
  </g>
  <g clip-path="url(#clip9)" stroke="#B4BBC9" stroke-width="2">
    <path d="M230.4 25.8a5.4 5.4 0 1 0 0-10.8 5.4 5.4 0 0 0 0 10.8z" stroke-miterlimit="10"/>
    <path d="M238.6 28.6l-4.3-4.3" stroke-linecap="round" stroke-linejoin="round"/>
  </g>
  <path d="M224 72v-7.1M239 72V57M231.5 72V61" stroke="#3063B9" stroke-width="2" stroke-linecap="round" stroke-linejoin="round"/>
  <path d="M267 71v-7.1M282 71V56M274.5 71V60" stroke="#B4BBC9" stroke-width="2" stroke-linecap="round" stroke-linejoin="round"/>
  <g clip-path="url(#clip10)" stroke="#D1C4B5" stroke-width="2" stroke-linecap="round" stroke-linejoin="round">
    <path d="M317.4 68.7h5.4v-5.4h-5.4v5.4zM317.4 62.5l5.4-5.3M307.2 68.7h5.4v-5.4h-5.4v5.4zM307.2 62.5l5.4-5.3"/>
  </g>
  <g clip-path="url(#clip11)">
    <path d="M272.5 98.5l2.2 4.4 4.8.7-3.5 3.4.8 4.8-4.3-2.3-4.3 2.3.8-4.8-3.5-3.4 4.8-.7 2.2-4.4z" stroke="#3063B9" stroke-linejoin="round"/>
  </g>
  <g clip-path="url(#clip12)" stroke="#B4BBC9" stroke-width="2" stroke-linecap="round" stroke-linejoin="round">
    <path d="M320.5 114.7V94H303v20.7a3.3 3.3 0 0 0 3.3 3.3h12"/>
    <path d="M320.5 107h6.5v7.7a3.3 3.3 0 0 1-3.3 3.3 3.3 3.3 0 0 1-3.2-3.3v-7.6zM311.7 100.5v11M307.4 107l4.3 4.5 4.4-4.4"/>
  </g>
  <path d="M17.7 177H9v8.7h8.7V177zM17.7 192.3H9v8.7h8.7v-8.7zM33 178.7H22.9M33 184H22.9M33 194H22.9M33 199.3H22.9M60.7 177H52v8.7h8.7V177zM76 177h-8.7v8.7H76V177zM60.7 192.3H52v8.7h8.7v-8.7zM76 192.3h-8.7v8.7H76v-8.7z" stroke="#6C7993" stroke-width="2" stroke-linecap="round" stroke-linejoin="round"/>
  <path d="M60.7 135H52v8.7h8.7V135zM76 135h-8.7v8.7H76V135zM60.7 150.3H52v8.7h8.7v-8.7zM76 150.3h-8.7v8.7H76v-8.7z" stroke="#B4BBC9" stroke-width="2" stroke-linecap="round" stroke-linejoin="round"/>
  <g clip-path="url(#clip13)" stroke="#B4BBC9" stroke-width="2" stroke-linecap="round" stroke-linejoin="round">
    <path d="M109.7 195.3l6.6-6.6-6.6-6.7M116.3 188.7H93"/>
  </g>
  <g clip-path="url(#clip14)">
    <path d="M141.8 144.8l5 5 5-5" stroke="#3063B9" stroke-width="1.5" stroke-linecap="round" stroke-linejoin="round"/>
  </g>
  <g clip-path="url(#clip15)" stroke="#fff" stroke-width="2" stroke-linecap="round">
    <path d="M181.4 139.4l16 16M197.4 139.4l-16 16"/>
  </g>
  <g clip-path="url(#clip16)">
    <path d="M141.7 188.9l3.9 3 6.1-6.2" stroke="#3A3D53" stroke-miterlimit="10" stroke-linecap="round"/>
  </g>
  <defs>
    <clipPath id="clip0">
      <path fill="#fff" transform="translate(0 84)" d="M0 0h42v42H0z"/>
    </clipPath>
    <clipPath id="clip1">
      <path fill="#fff" transform="translate(97 17)" d="M0 0h15.5v9H0z"/>
    </clipPath>
    <clipPath id="clip2">
      <path fill="#fff" transform="translate(17 13)" d="M0 0h9v16H0z"/>
    </clipPath>
    <clipPath id="clip3">
      <path fill="#fff" transform="translate(59 13)" d="M0 0h9v16H0z"/>
    </clipPath>
    <clipPath id="clip4">
      <path fill="#fff" transform="translate(135 14)" d="M0 0h23.3v13.3H0z"/>
    </clipPath>
    <clipPath id="clip5">
      <path fill="#fff" transform="translate(179 51)" d="M0 0h20v24H0z"/>
    </clipPath>
    <clipPath id="clip6">
      <path fill="#fff" transform="translate(42 42)" d="M0 0h42v42H0z"/>
    </clipPath>
    <clipPath id="clip7">
      <path fill="#fff" transform="translate(0 42)" d="M0 0h42v42H0z"/>
    </clipPath>
    <clipPath id="clip8">
      <path fill="#fff" transform="translate(266 14)" d="M0 0h16v16H0z"/>
    </clipPath>
    <clipPath id="clip9">
      <path fill="#fff" transform="translate(224 14)" d="M0 0h16v16H0z"/>
    </clipPath>
    <clipPath id="clip10">
      <path fill="#fff" transform="translate(306 56)" d="M0 0h18v13.5H0z"/>
    </clipPath>
    <clipPath id="clip11">
      <path fill="#fff" transform="translate(265 98)" d="M0 0h15v14.3H0z"/>
    </clipPath>
    <clipPath id="clip12">
      <path fill="#fff" transform="translate(302 93)" d="M0 0h26v26H0z"/>
    </clipPath>
    <clipPath id="clip13">
      <path fill="#fff" transform="translate(92 181)" d="M0 0h25.3v15.3H0z"/>
    </clipPath>
    <clipPath id="clip14">
      <path fill="#fff" transform="translate(141 144)" d="M0 0h11.5v6.5H0z"/>
    </clipPath>
    <clipPath id="clip15">
      <path fill="#fff" transform="translate(180 138)" d="M0 0h18.8v18.8H0z"/>
    </clipPath>
    <clipPath id="clip16">
      <path fill="#fff" transform="translate(141 185)" d="M0 0h11.4v7.5H0z"/>
    </clipPath>
  </defs>
</svg>
