<svg xmlns="http://www.w3.org/2000/svg" width="100" height="100"><path d="M50 0A50 50 0 1 1 0 50 50 50 0 0 1 50 0z" fill="#ded3b5"/><g transform="translate(-450 -131.332)" fill="none" stroke="#fff" stroke-linecap="round" stroke-linejoin="round" stroke-width="2"><path d="M516.667 186.666v-23.333h-33.33v23.333h33.33M506.67 186.67H500l6.67 13.33h6.67l-5-10M493.33 186.67H500L493.34 200h-6.67l5-10M505.003 196.67h-10"/><path d="M483.343 178.311l5.335-2.661a5.967 5.967 0 0 1 8.01 2.661 5.982 5.982 0 0 0 8.009 2.674l11.97-5.985"/><circle cx="3.332" cy="3.332" r="3.332" transform="translate(500.456 168.337)"/><path d="M483.333 163.333H480M516.667 163.333H520M516.667 186.667H520M483.333 186.667H480"/></g></svg>