<svg xmlns="http://www.w3.org/2000/svg" width="100" height="100"><path d="M50 0A50 50 0 1 1 0 50 50 50 0 0 1 50 0z" fill="#ccc9e6"/><g transform="translate(-289 -131.33)" stroke-width="2" stroke="#fff" stroke-linecap="round" stroke-linejoin="round" fill="none"><path d="M333 193.33h-13M320 163.33h11.31a9.989 9.989 0 0 1 8.33 4.46l2.77 4.16a4.007 4.007 0 0 0 2.55 1.71l11.82 2.36a4.014 4.014 0 0 1 3.22 3.93v9.38a4 4 0 0 1-4 4h-4.77M320 173.333h19.333"/><circle cx="7.5" cy="7.5" r="7.5" transform="translate(336.25 185.417)"/><path d="M324 180h6M360 188h-10.59M338.09 188H320M331 164v9M360 182h-4a4 4 0 0 1-4-4"/><circle cx="2.917" cy="2.917" r="2.917" transform="translate(340.833 190)"/></g></svg>