<svg xmlns="http://www.w3.org/2000/svg" width="100" height="100"><path d="M50 0A50 50 0 1 1 0 50 50 50 0 0 1 50 0z" fill="#b2c3e2"/><g transform="translate(-850.333 -130)" fill="none" stroke="#fff" stroke-linecap="round" stroke-linejoin="round" stroke-width="2"><path d="M915 173.33c0 10.28-6.59 18.34-15 18.34s-15-8.06-15-18.34"/><ellipse cx="10" cy="13.333" rx="10" ry="13.333" transform="translate(890 160)"/><path d="M900 195.709v-4.039M906.667 200h-13.334v-2.724a14.9 14.9 0 0 1 13.334 0zM890 173.333h-6.667M916.667 173.333H910M898.581 174.749l-1.665 1.665M908 165.33l-6.92 6.92M904.93 161.73l-4.93 4.94"/></g></svg>