<svg xmlns="http://www.w3.org/2000/svg" width="100" height="100"><path d="M50 0A50 50 0 1 1 0 50 50 50 0 0 1 50 0z" fill="#e0c7c0"/><g fill="none" stroke="#fff" stroke-linecap="round" stroke-linejoin="round" stroke-width="2"><path d="M70 62.052s-3.333 6.667-20 6.667-20-6.667-20-6.667"/><path d="M59.92 45.989a5.952 5.952 0 0 1 3.41 5.4v15.34M53.33 45.389H42.67a6 6 0 0 0-6 6v15.34M58.28 68.059a8.7 8.7 0 1 0-16.56 0M36.67 50.689v-5.995a3.337 3.337 0 0 0-3.34-3.33 3.346 3.346 0 0 0-3.33 3.33v9.335a9.4 9.4 0 0 0 3.33-.76"/><path d="M43.333 45.386h10v1.667a5 5 0 0 1-5 5 5 5 0 0 1-5-5v-1.667z"/><path d="M53.33 45.389V41a10 10 0 0 1 10-10A9.868 9.868 0 0 1 70 33.56"/><path d="M59.92 45.989v-5.247a1.747 1.747 0 0 1 1.426-1.752 1.7 1.7 0 0 1 1.984 1.679v1.718a3 3 0 0 0 3 3h2.038v-9.9l1.63-1.93M59.92 45.989h-3.377"/></g></svg>