<svg xmlns="http://www.w3.org/2000/svg" width="100" height="100"><path d="M50 0A50 50 0 1 1 0 50 50 50 0 0 1 50 0z" fill="#ead7b8"/><g fill="none" stroke="#fff" stroke-linecap="round" stroke-linejoin="round" stroke-width="2"><path d="M56.933 39.705v13.38A17.238 17.238 0 0 1 52.52 64.87a.514.514 0 0 0-.081.081 10.506 10.506 0 0 1-17.955 0 .536.536 0 0 0-.071-.081A17.237 17.237 0 0 1 30 53.085v-13.38z"/><path d="M45.44 36.67L48.08 30 70 38.64l-4.29 10.89A15.476 15.476 0 0 1 60 56.75M38.417 57.377a5.05 5.05 0 0 0 10.1 0zM34.708 49.8a3.348 3.348 0 0 1 5.392 0M46.832 49.8a3.349 3.349 0 0 1 5.393 0"/></g></svg>