<svg xmlns="http://www.w3.org/2000/svg" width="100" height="100"><path d="M50 0A50 50 0 1 1 0 50 50 50 0 0 1 50 0z" fill="#b0bdcc"/><g transform="translate(-450 230)" stroke-width="2" stroke="#fff" stroke-linecap="round" stroke-linejoin="round" fill="none"><ellipse cx="3.333" cy="1.944" rx="3.333" ry="1.944" transform="translate(496.667 -190.278)"/><path d="M500-176.667l-20-11.667L500-200l20 11.667zM490-182.5v14.17M510-182.5v14.17M490-168.333c0 2.763 4.478 5 10 5s10-2.237 10-5M490-173.333c0 2.763 4.478 5 10 5s10-2.237 10-5M516.663-164.71v-18.623M513.333-161.381a4.714 4.714 0 0 0 6.667 0l-3.333-3.333z"/></g></svg>