<svg xmlns="http://www.w3.org/2000/svg" width="100" height="100"><path d="M50 0A50 50 0 1 1 0 50 50 50 0 0 1 50 0z" fill="#d6c7c0"/><g fill="none" stroke="#fff" stroke-linecap="round" stroke-linejoin="round" stroke-width="2"><path d="M41.667 68V38h16.667v30"/><path d="M58.333 41.333h8.333V68h-8.333zM45.833 43.556v2.54M50 43.556v2.54M54.167 43.556v2.54M45.833 51.175v2.54M50 51.175v2.54M54.167 51.175v2.54M45.833 58.794v2.54M50 58.794v2.54M54.167 58.794v2.54M66.667 48h-2.778M66.667 54.667h-2.778M66.667 61.333h-2.778M41.667 68h-8.333V41.333h8.333zM33.333 48h2.778M33.333 54.667h2.778M33.333 61.333h2.778M50 28v3.333M53.333 68H70M30 68h20M56.667 38v-3.333L50 31.333l-6.667 3.333V38z"/></g></svg>