<svg xmlns="http://www.w3.org/2000/svg" width="100" height="100"><path d="M50 0A50 50 0 1 1 0 50 50 50 0 0 1 50 0z" fill="#b2d5e2"/><g transform="translate(-288 -50)" stroke-width="2" stroke="#fff" stroke-linecap="round" stroke-linejoin="round" fill="none"><rect width="20" height="10" rx="5" transform="translate(340 110)"/><path d="M327.52 87.333l-.85 3.33H324a4 4 0 0 0-4 4v18.007a4 4 0 0 0 4 4h12.67M335.81 87.333l.86 3.33h2.66a4 4 0 0 1 4 4v12.007"/><path d="M320 110h16.667V97.333H320M350 113.333V120M325.333 80H338a2 2 0 0 1 2 2v4.667h-16.667V82a2 2 0 0 1 2-2zM320 103.333h10"/></g></svg>