<svg xmlns="http://www.w3.org/2000/svg" width="100" height="100"><path d="M50 0A50 50 0 1 1 0 50 50 50 0 0 1 50 0z" fill="#b9d8d2"/><g transform="translate(-370 -50.333)" stroke-width="2" stroke="#fff" stroke-linecap="round" stroke-linejoin="round" fill="none"><path d="M400 96.667h40v20h-40z"/><ellipse cx="5.551" cy="4.612" rx="5.551" ry="4.612" transform="translate(414.449 102.054)"/><path d="M406.667 96.667v.666a6 6 0 0 1-6 6H400M400 110h.667a6 6 0 0 1 6 6v.667M433.333 96.667v.666a6 6 0 0 0 6 6H440M440 110h-.667a6 6 0 0 0-6 6v.667M440 93.333V90h-40v3.333M440 86.667v-3.334h-40v3.333"/></g></svg>