<svg xmlns="http://www.w3.org/2000/svg" width="100" height="100"><path d="M50 0A50 50 0 1 1 0 50 50 50 0 0 1 50 0z" fill="#e1d2ba"/><g fill="none" stroke="#fff" stroke-linecap="round" stroke-linejoin="round" stroke-width="2"><path d="M50.189 54.639a3.615 3.615 0 0 1-5.447-.387L32.063 37.346a4.806 4.806 0 0 1 .446-6.281l32.907 32.907a3.47 3.47 0 0 1 0 4.907l-.006.007a3.471 3.471 0 0 1-5.372-.576l-6.9-10.724M57.62 35.304l7.071 7.071-1.768 1.768a5 5 0 0 1-7.07 0 5 5 0 0 1 0-7.071l1.767-1.768zM57.62 35.304L62.924 30M64.692 42.376l5.304-5.304M61.156 38.84l5.304-5.304M44.924 59.147l-7.1 9.157a4.375 4.375 0 1 1-6.553-5.772 4.074 4.074 0 0 1 .362-.321l9.087-7.262M51.337 48.664l4.517-4.517"/></g></svg>