<svg xmlns="http://www.w3.org/2000/svg" width="100" height="100"><path d="M50 0A50 50 0 1 1 0 50 50 50 0 0 1 50 0z" fill="#c5d1c9"/><g fill="none" stroke="#fff" stroke-linecap="round" stroke-linejoin="round" stroke-width="2"><path d="M57.247 34.763v10h-13.79v-10"/><path d="M52.484 41.161v3.6h-4.263v-3.6a2.131 2.131 0 0 1 2.132-2.132 2.131 2.131 0 0 1 2.131 2.132zM43.457 34.763h13.79M58.333 34.763H42.371L44.315 30H56.4zM36.17 51.9v-8.14a4 4 0 0 1 4-4h3.29M57.25 39.76h3.28a4 4 0 0 1 4 4v8.14M44.876 60v10h-13.79V60"/><path d="M40.113 66.4V70h-4.262v-3.6a2.131 2.131 0 0 1 2.131-2.131 2.131 2.131 0 0 1 2.131 2.131zM31.086 60h13.79M45.962 60H30l1.944-4.763h12.084zM68.914 60v10h-13.79V60"/><path d="M64.151 66.4V70h-4.263v-3.6a2.131 2.131 0 0 1 2.131-2.131 2.132 2.132 0 0 1 2.132 2.131zM55.124 60h13.79M70 60H54.038l1.944-4.763h12.084z"/></g></svg>