<svg xmlns="http://www.w3.org/2000/svg" width="100" height="100"><path d="M50 0A50 50 0 1 1 0 50 50 50 0 0 1 50 0z" fill="#c8c2db"/><g transform="translate(-689 -211)" fill="none" stroke="#fff" stroke-linecap="round" stroke-linejoin="round" stroke-width="2"><path d="M738.182 259.142c2.64 0 4.014-4.58 11.015-4.58a7.056 7.056 0 0 1 7.012 8.6l-.306 1.494-2.355 11.777a4.449 4.449 0 0 1-4.687 3.551 4.614 4.614 0 0 1-4.055-3.794l-1.313-6.616a2.182 2.182 0 0 0-2.137-1.756l-3.174-.011-3.173.011a2.182 2.182 0 0 0-2.137 1.756l-1.313 6.616a4.614 4.614 0 0 1-4.055 3.794 4.449 4.449 0 0 1-4.687-3.551l-2.355-11.777-.306-1.494a7.056 7.056 0 0 1 7.012-8.6c7.001 0 8.375 4.58 11.014 4.58zM727.28 259.519v4.619M729.59 261.828h-4.619"/><circle cx="2.333" cy="2.333" r="2.333" transform="translate(746.757 259.495)"/><path d="M732.232 272.799h11.873M733.25 256.143a3.4 3.4 0 0 1 3.359-2.846h3.152a3.41 3.41 0 0 1 3.359 2.835v.011M738.185 250v-5.714a4.286 4.286 0 0 1 4.286-4.286 4.286 4.286 0 0 1 4.286 4.286 2.362 2.362 0 0 0 2.362 2.362H760"/></g></svg>