<svg xmlns="http://www.w3.org/2000/svg" width="100" height="100"><path d="M50 0A50 50 0 1 1 0 50 50 50 0 0 1 50 0z" fill="#bdd8c5"/><g fill="none" stroke="#fff" stroke-linecap="round" stroke-linejoin="round" stroke-width="2"><path d="M54.058 58.1h2.011a6.023 6.023 0 0 0 4.482-10.047 5.942 5.942 0 0 0 1.542-4.011 6.026 6.026 0 0 0-6.024-6.023 1.655 1.655 0 0 0-.349.024 5.954 5.954 0 0 0 .349-2.024 6.023 6.023 0 0 0-12.046 0 5.955 5.955 0 0 0 .35 2.024 1.66 1.66 0 0 0-.35-.024A6.025 6.025 0 0 0 38 44.042a5.937 5.937 0 0 0 1.542 4.011A6.023 6.023 0 0 0 44.023 58.1h6.023M50.046 47.333l4.756-3.496M50.046 52.105l-4.756-3.496M54.061 70h8.219"/><path d="M38.187 70h11.859V38.027"/></g></svg>