<svg xmlns="http://www.w3.org/2000/svg" width="100" height="100"><path d="M50 0A50 50 0 1 1 0 50 50 50 0 0 1 50 0z" fill="#c0d0ae"/><g fill="none" stroke="#fff" stroke-linecap="round" stroke-linejoin="round" stroke-width="2"><path d="M50.94 44.914c1.8 0 3.573-2.292 5.893-2.688a9.324 9.324 0 0 1 9.054 3.821c2.263 3.11 2.037 7.859 1.109 11.4-1.401 5.351-4.938 11.551-11.065 11.551-2.989 0-3.511-1.828-5.1-1.828s-2.112 1.828-5.1 1.828c-6.127 0-9.664-6.2-11.065-11.548-.929-3.544-1.154-8.293 1.108-11.4a9.324 9.324 0 0 1 9.055-3.821c2.32.4 4.092 2.688 5.893 2.688z"/><path d="M58.321 47.188a4.332 4.332 0 0 1 3.451 1.851c.938 1.29 1.062 4.219.3 7.122M50.695 43.452c0-5.86 2.778-9.748 6.677-11.169"/><path d="M51.405 38.288a9.938 9.938 0 0 0-11.77-9.11 9.908 9.908 0 0 0 7.98 9.09"/></g></svg>