<svg xmlns="http://www.w3.org/2000/svg" width="100" height="100"><path d="M50 0A50 50 0 1 1 0 50 50 50 0 0 1 50 0z" fill="#d5c8b8"/><g transform="translate(-449.244 -209)" stroke-width="2" stroke="#fff" stroke-linecap="round" stroke-linejoin="round" fill="none"><path d="M486.73 279.997v-19.982M491.994 279.997v-10.108M497.257 280v-21.605M483.531 269.889a3.3 3.3 0 0 1-3.288-3.3v-7.238a5.924 5.924 0 0 1 5.924-5.924h26.009v1.017a3.95 3.95 0 0 1-3.95 3.949h-10.969"/><rect width="7.34" height="9.589" rx="3.395" transform="translate(488.324 240)"/><path d="M507.319 253.432v-13.003M507.319 279.997v-21.232M507.319 242.091h12.439l-2.019 3.749 2.019 3.749h-9.826"/></g></svg>