<svg xmlns="http://www.w3.org/2000/svg" width="100" height="100"><path d="M50 0A50 50 0 1 1 0 50 50 50 0 0 1 50 0z" fill="#b5c8d1"/><g fill="none" stroke="#fff" stroke-linecap="round" stroke-linejoin="round" stroke-width="2"><path d="M70 69V45.67l-13.33 6.66M43.33 55.69V45.67L30 52.33V69h36.667"/><path d="M56.67 55.69V45.67l-13.34 6.66M33 50.83l1.15-15.16h5.04l.88 11.63M36.667 32.333A3.333 3.333 0 0 1 40 29h10M39.167 56.476l-3.9 1.969a2 2 0 0 0-1.1 1.786v2.912h5zM52.5 56.476l-3.9 1.969a2 2 0 0 0-1.1 1.786v2.912h5zM65.834 56.476l-3.9 1.969a2 2 0 0 0-1.1 1.786v2.912h5zM53.333 29h3.333"/></g></svg>