<svg xmlns="http://www.w3.org/2000/svg" width="100" height="100"><path d="M50 0A50 50 0 1 1 0 50 50 50 0 0 1 50 0z" fill="#bdcfe6"/><g transform="translate(-930 -210)" fill="none" stroke="#fff" stroke-linecap="round" stroke-linejoin="round" stroke-width="2"><path d="M971.08 274.46l-6.36-4.24a1.932 1.932 0 0 1-.85-1.48.486.486 0 0 1-.01-.12 1.928 1.928 0 0 1 2.99-1.6l8.29 5.53a3.294 3.294 0 0 1 1.48 2.76V280"/><path d="M973.29 280h-4.98v-2.78l-6.45-4.3a4.157 4.157 0 0 1-1.86-3.46v-7.31a1.529 1.529 0 0 1 1.14-1.51 1.474 1.474 0 0 1 1.8 1.24l.93 6.86.01.11a.142.142 0 0 0 .02.06M988.92 274.46l6.36-4.24a1.932 1.932 0 0 0 .85-1.48.486.486 0 0 0 .01-.12 1.928 1.928 0 0 0-2.99-1.6l-8.29 5.53a3.294 3.294 0 0 0-1.48 2.76V280"/><path d="M986.71 280h4.98v-2.78l6.45-4.3a4.157 4.157 0 0 0 1.86-3.46v-7.31a1.529 1.529 0 0 0-1.14-1.51 1.474 1.474 0 0 0-1.8 1.24l-.93 6.86-.01.11a.142.142 0 0 1-.02.06"/><circle cx="11.667" cy="11.667" r="11.667" transform="translate(968.333 240)"/><ellipse cx="11.667" cy="3.889" rx="11.667" ry="3.889" transform="translate(968.333 247.778)"/><ellipse cx="3.889" cy="11.667" rx="3.889" ry="11.667" transform="translate(976.111 240)"/></g></svg>