<svg xmlns="http://www.w3.org/2000/svg" width="100" height="100"><path d="M50 0A50 50 0 1 1 0 50 50 50 0 0 1 50 0z" fill="#bfcece"/><g stroke-width="2" stroke="#fff" stroke-linecap="round" stroke-linejoin="round" fill="none"><path d="M50 61V34.67M43.333 54.667a6.667 6.667 0 0 1-13.333 0zM31.67 51.33l5-10 4.99 10M70 54.667a6.667 6.667 0 0 1-13.333 0zM58.34 51.33l4.99-10 5 10M36.667 41.333h26.667M50 68h-6.667v-3.333L50 61.333M50 68h6.667v-3.333L50 61.333M49.976 28a3.309 3.309 0 0 1 3.309 3.309v3.361h-6.618v-3.361A3.309 3.309 0 0 1 49.976 28z"/></g></svg>