<svg xmlns="http://www.w3.org/2000/svg" width="100" height="100"><path d="M50 0A50 50 0 1 1 0 50 50 50 0 0 1 50 0z" fill="#c2cde2"/><g fill="none" stroke="#fff" stroke-linecap="round" stroke-linejoin="round" stroke-width="2"><path d="M59.204 55V45l-8.66-5-8.66 5v10l8.66 5zM50.544 49.999l-8.658-5.002M59.201 44.997l-8.658 5.002M50.543 59.997V50M53.653 33.333L50.32 30l-3.333 3.333M50.32 30v6.667M46.987 66.667L50.32 70l3.333-3.333M50.32 70v-6.667M37.553 38.78L33 40l1.22 4.553M33 40l5.774 3.333M63.087 61.22L67.64 60l-1.22-4.553M67.641 60l-5.774-3.333M34.22 55.447L33 60l4.553 1.22M33 60l5.774-3.333M66.42 44.553L67.64 40l-4.553-1.22M67.641 40l-5.774 3.333"/></g></svg>