<svg xmlns="http://www.w3.org/2000/svg" width="100" height="100"><path d="M50 0A50 50 0 1 1 0 50 50 50 0 0 1 50 0z" fill="#d9bbb2"/><g fill="none" stroke="#fff" stroke-linecap="round" stroke-linejoin="round" stroke-width="2"><path d="M62 65V30H32v35a5 5 0 0 0 5 5h21.667M65.333 40h3.334v26.667A3.334 3.334 0 0 1 65.333 70 3.333 3.333 0 0 1 62 66.667V40"/><path d="M38.667 43.333h6.667V50h-6.667zM38.667 55.536h6.667M48.667 55.536h6.667M48.667 43.333h6.667M48.667 48.532h4.164M38.667 60.734h6.667M48.667 60.734h6.667M38.667 36.667H52"/></g></svg>