<svg xmlns="http://www.w3.org/2000/svg" width="100" height="100"><path d="M50 0A50 50 0 1 1 0 50 50 50 0 0 1 50 0z" fill="#e7c7cb"/><g stroke-width="2" stroke="#fff" stroke-linecap="round" stroke-linejoin="round" fill="none"><path d="M46.186 53.403l-6.701 14.025M50 37.359a4.007 4.007 0 0 0-4-4.016h-2.67a16.117 16.117 0 0 0 .773 5.2 15.028 15.028 0 0 1 .8 4.837 12.806 12.806 0 0 1-3.421 8.689L30 64.426s2.475 3.83 9.487 3c0 0 1.854 2.577 10.513 2.577M43.332 30v3.347M60.508 67.428l-6.701-14.025"/><path d="M50 70c8.659 0 10.513-2.577 10.513-2.577 7.012.833 9.487-3 9.487-3L58.522 52.069a12.806 12.806 0 0 1-3.421-8.689 15.028 15.028 0 0 1 .8-4.837 16.117 16.117 0 0 0 .773-5.2H54a4.007 4.007 0 0 0-4 4.016M56.668 30v3.347"/><path d="M44.79 45.04c0 .9 2.33 1.63 5.21 1.63a14.372 14.372 0 0 0 2.27-.17"/></g></svg>