<svg xmlns="http://www.w3.org/2000/svg" width="100" height="100"><path d="M50 0A50 50 0 1 1 0 50 50 50 0 0 1 50 0z" fill="#c8c6d8"/><g fill="none" stroke="#fff" stroke-linecap="round" stroke-linejoin="round" stroke-width="2"><path d="M50 41.534l2.222 4.5 4.968.722-3.595 3.5.849 4.948L50 52.873l-4.443 2.336.849-4.948-3.595-3.5 4.968-.722zM42.308 36.448a6.074 6.074 0 0 1-5.895 2.491 6.3 6.3 0 0 1 6.567-8.849 6.064 6.064 0 0 1-.672 6.358zM37.114 43.648a3.712 3.712 0 1 1-2.583-5.849 6.072 6.072 0 0 1 2.583 5.849zM36.508 52.481a6.076 6.076 0 0 1-.775 6.353 6.3 6.3 0 0 1-4.4-10.1 6.065 6.065 0 0 1 5.175 3.747zM40.668 60.352a6.076 6.076 0 0 1 2.491 5.9 6.3 6.3 0 0 1-8.85-6.567 6.064 6.064 0 0 1 6.359.667z"/><path d="M52.072 70a7.181 7.181 0 0 0-2.77-3.147 7.6 7.6 0 0 0-6.143-.606M57.692 36.448a6.074 6.074 0 0 0 5.895 2.491 6.3 6.3 0 0 0-6.567-8.849 6.064 6.064 0 0 0 .672 6.358zM62.886 43.648a3.712 3.712 0 1 0 2.583-5.849 6.072 6.072 0 0 0-2.583 5.849zM63.492 52.481a6.076 6.076 0 0 0 .775 6.353 6.3 6.3 0 0 0 4.4-10.1 6.065 6.065 0 0 0-5.175 3.747zM59.332 60.352a6.076 6.076 0 0 0-2.491 5.9 6.3 6.3 0 0 0 8.85-6.567 6.064 6.064 0 0 0-6.359.667zM53.33 65.93a8.115 8.115 0 0 1 3.51.32M47.93 70A7.168 7.168 0 0 1 50 67.34"/></g></svg>