<svg xmlns="http://www.w3.org/2000/svg" width="100" height="100"><path d="M50 0A50 50 0 1 1 0 50 50 50 0 0 1 50 0z" fill="#dbcac3"/><g transform="translate(-210 -210)" stroke-width="2" stroke="#fff" stroke-linecap="round" stroke-linejoin="round" fill="none"><ellipse cx="4.183" cy="6" rx="4.183" ry="6" transform="translate(240 249.525)"/><ellipse cx="4.183" cy="6" rx="4.183" ry="6" transform="translate(261.768 240)"/><ellipse cx="4.183" cy="6" rx="4.183" ry="6" transform="translate(271.634 249.525)"/><ellipse cx="4.183" cy="6" rx="4.183" ry="6" transform="translate(249.866 240)"/><path d="M273.21 273.33a17.1 17.1 0 0 1 .12 2.02 4.71 4.71 0 0 1-8.04 3.27 6.675 6.675 0 0 0-4.72-1.95h-1.14a6.675 6.675 0 0 0-4.72 1.95 4.72 4.72 0 0 1-6.65.02 4.576 4.576 0 0 1-1.39-3.29c0-8.51 6.14-17.22 12.38-17.22h1.9c4.92 0 9.77 5.41 11.61 11.87"/></g></svg>