<svg xmlns="http://www.w3.org/2000/svg" width="100" height="100"><path d="M50 0A50 50 0 1 1 0 50 50 50 0 0 1 50 0z" fill="#d1c4b5"/><g fill="none" stroke="#fff" stroke-linecap="round" stroke-linejoin="round" stroke-width="2"><path d="M43.333 42H36.9a6.82 6.82 0 0 0-6.882 6.222 6.669 6.669 0 0 0 6.653 7.112M43.333 48.667v6.667M56.667 65.334h6.667V32.001h-6.667M56.667 65.334V32s-3.334 10-13.334 10v13.334M43.333 58.667v8.519a1.485 1.485 0 0 1-1.481 1.481h-.741a4.448 4.448 0 0 1-4.444-4.444v-8.889M66.667 48.667H70M66.667 55.334L70 58.667M66.667 42L70 38.667M36.667 55.334H40M43.333 55.334c10 0 13.334 10 13.334 10"/></g></svg>