<svg xmlns="http://www.w3.org/2000/svg" width="100" height="100"><path d="M50 0A50 50 0 1 1 0 50 50 50 0 0 1 50 0z" fill="#ccc0d0"/><g transform="translate(-532.002 -210.016)" fill="none" stroke="#fff" stroke-linecap="round" stroke-linejoin="round" stroke-width="2"><circle cx="3.333" cy="3.333" r="3.333" transform="translate(593.336 273.348)"/><circle cx="3.333" cy="3.333" r="3.333" transform="translate(573.336 273.348)"/><path d="M596.669 273.348h-26a4 4 0 0 1-4-4V242.5L560 240.015"/><path d="M566.664 246.685v20H594a6 6 0 0 0 6-6v-10.64l-30.24-3.05M573.335 253.535v8.247M580.002 253.535v8.247M586.669 253.535v8.247M593.335 253.535v8.247"/></g></svg>