<svg xmlns="http://www.w3.org/2000/svg" width="100" height="100"><path d="M50 0A50 50 0 1 1 0 50 50 50 0 0 1 50 0z" fill="#ccd1d1"/><g transform="translate(-770 -129.73)" fill="none" stroke="#fff" stroke-linecap="round" stroke-linejoin="round" stroke-width="2"><path d="M813.333 193.333a6.666 6.666 0 0 1 6.667-6.666 6.666 6.666 0 0 1 6.667 6.666h.666a6 6 0 0 1 6 6V200h-26.666v-.667a6 6 0 0 1 6-6zM813.333 193.333h10M813.333 193.333"/><circle cx="5" cy="5" r="5" transform="translate(823.333 163.443)"/><path d="M829.46 173.31l-2.79 20.02M814.23 190l10.19-17.3.41-.69M813.333 174.935l-5.53-2.641v-7.922l5.53-2.64zM803.333 168.333H800M807.8 165.333h-2.47a2 2 0 0 0-2 2v2.22a2 2 0 0 0 2 2h2.47zM827.67 163.49h-.01M826.79 163.68h-.01l-12.55 2.69"/><path d="M814.23 170.52l12.55 2.69.06.01.08.02M827.67 173.4l-.15-.03M833.33 170l4.39 2.19a4.118 4.118 0 0 1-1.84 7.81h-2.547"/></g></svg>