<svg xmlns="http://www.w3.org/2000/svg" width="100" height="100"><path d="M50 0A50 50 0 1 1 0 50 50 50 0 0 1 50 0z" fill="#b3d3ce"/><g fill="none" stroke="#fff" stroke-linecap="round" stroke-linejoin="round" stroke-width="2"><path d="M41.132 31.001h16.751a13.2 13.2 0 0 0 8.133 6.191v12.67a21.722 21.722 0 0 1-16.058 21.02l-.445.119c-.159-.04-.307-.079-.456-.119A21.733 21.733 0 0 1 33 49.862v-12.67a13.19 13.19 0 0 0 8.132-6.191z"/><path d="M39.546 54.201a15.96 15.96 0 0 1-.6-4.34v-8.69a19.19 19.19 0 0 0 5.22-4.23h10.69a19.19 19.19 0 0 0 5.22 4.23M60.076 44.421v5.44a15.816 15.816 0 0 1-10.565 14.95 15.707 15.707 0 0 1-8.63-7.35"/></g></svg>