<svg xmlns="http://www.w3.org/2000/svg" width="100" height="100"><path d="M50 0A50 50 0 1 1 0 50 50 50 0 0 1 50 0z" fill="#c5d9db"/><g transform="translate(-930 -50)" fill="none" stroke="#fff" stroke-linecap="round" stroke-linejoin="round" stroke-width="2"><path d="M986.67 84.72a16.7 16.7 0 0 1 9.67 11.97M963.66 103.31a16.7 16.7 0 0 0 9.67 11.97M983.31 116.34a16.7 16.7 0 0 0 11.97-9.67M964.72 93.33a16.7 16.7 0 0 1 11.97-9.67"/><circle cx="3.333" cy="3.333" r="3.333" transform="translate(976.667 113.333)"/><circle cx="3.333" cy="3.333" r="3.333" transform="translate(960 96.667)"/><circle cx="3.333" cy="3.333" r="3.333" transform="translate(993.333 96.667)"/><circle cx="3.333" cy="3.333" r="3.333" transform="translate(976.667 80)"/><circle cx="3.703" cy="3.703" r="3.703" transform="translate(976.297 91.239)"/><path d="M986.67 107.973v-2.283a4 4 0 0 0-4-4h-5.34a4 4 0 0 0-4 4v2.283h9.98"/></g></svg>