<svg xmlns="http://www.w3.org/2000/svg" width="100" height="100"><path d="M50 0A50 50 0 1 1 0 50 50 50 0 0 1 50 0z" fill="#e8c6ba"/><g transform="translate(-690 -130)" stroke-width="2" stroke="#fff" stroke-linecap="round" stroke-linejoin="round" fill="none"><rect width="28" height="40" rx="4" transform="rotate(90 297 463)"/><path d="M740 166v28"/><circle cx="6.667" cy="6.667" r="6.667" transform="translate(733.333 173.333)"/><path d="M723.33 187.17a4 4 0 0 0 4-4v-6.34a4 4 0 0 0-4-4M756.67 187.17a4 4 0 0 1-4-4v-6.34a4 4 0 0 1 4-4"/></g></svg>