<svg xmlns="http://www.w3.org/2000/svg" width="100" height="100"><path d="M50 0A50 50 0 1 1 0 50 50 50 0 0 1 50 0z" fill="#d1d0c5"/><g transform="translate(-850 -210)" fill="none" stroke="#fff" stroke-linecap="round" stroke-linejoin="round" stroke-width="2"><path d="M889.041 240h21.919a4 4 0 0 1 4 4v27.333a2 2 0 0 1-2 2h-25.919a2 2 0 0 1-2-2V244a4 4 0 0 1 4-4zM885.041 260h29.919M893.333 276.667v.853a2.479 2.479 0 0 1-2.479 2.48 2.48 2.48 0 0 1-2.48-2.48v-.853M911.626 276.667v.853a2.48 2.48 0 0 1-2.48 2.48 2.479 2.479 0 0 1-2.479-2.48v-.853M885.041 246.667h29.919"/><circle cx="2.657" cy="2.657" r="2.657" transform="translate(889.26 264.01)"/><circle cx="2.657" cy="2.657" r="2.657" transform="translate(905.427 264.01)"/><path d="M898.094 266.667h3.901M900 246.667v10M885.041 246.667h-1.708A3.333 3.333 0 0 0 880 250M914.959 246.667h1.708A3.333 3.333 0 0 1 920 250"/></g></svg>