<svg xmlns="http://www.w3.org/2000/svg" width="100" height="100"><path d="M50 0A50 50 0 1 1 0 50 50 50 0 0 1 50 0z" fill="#b4d5d5"/><g fill="none" stroke="#fff" stroke-linecap="round" stroke-linejoin="round" stroke-width="2"><path d="M42.2 40.845a5.536 5.536 0 0 0 10.933 0M68.222 62.444c-1.512-.149-1.983-.246-5.575 1.38A18.911 18.911 0 0 0 57.111 68h-8.333v-2.951a1.785 1.785 0 0 1 1.462-1.763c.9-.161 1.93-.379 3.068-.678a34.627 34.627 0 0 0 6.829-2.472 19.844 19.844 0 0 0 8.209-8.8A6.728 6.728 0 0 1 71 56.829a7.442 7.442 0 0 1-2.778 5.618V68M56 68h-5"/><path d="M56 58v-6.65l4.18 3.33L64.34 48l-6.67-6.67-10-3.33-10 3.333L31 48l4.16 6.68 4.18-3.33V68h4.993M47.667 38v-3.333a3.333 3.333 0 1 0-3.334-3.334M47.667 45.513v5.82"/></g></svg>